# xmcd
#
# Track frame offsets: 
#        150
#        9218
#        19269
#        32706
#        45608
#        57614
#        69636
#        77744
#        85838
#        100141
#        113480
#        122938
#        131996
#        142092
#        154821
#
# Disc length: 2223 seconds
#
# Revision: 0
# Processed by: cddbd v1.5.1PL0 Copyright (c) Steve Scherf et al.
# Submitted via: ExactAudioCopy v0.95a5
#
DISCID=cc08ad0f
DTITLE=Various Artist - Sunshine Moonshine In The Old West
DYEAR=1900
DGENRE=Bluegrass
TTITLE0=Gene Autry/Have I Told You Lately
TTITLE1=Red Foley/Smoke On The Water
TTITLE2=Bill Monroe/Blue Moon Of Kentucky
TTITLE3=Roy Acuff/Night Train To Memphis
TTITLE4=Bob Wills/Bob Wills Waltz
TTITLE5=Gene Autry/Back In The Saddle Again
TTITLE6=Grandpa Jones/Bile That Cabbage Down
TTITLE7=Ralph Stanley;Ricky Skaggs/Lets Keep Old Glory Waving
TTITLE8=Carter Family/Can The Circle Be Unbroken
TTITLE9=Roy Acuff/ Great Speckled Bird
TTITLE10=Bill Monroe/Prison Song
TTITLE11=Sunset Carson/The Prodigal Song
TTITLE12=Tex Williams/Bummin Around
TTITLE13=Jimmy Rodgers/Any Old Time
TTITLE14=Ricky Scaggs - Ralph Stanley/Are You Proud Of America
EXTD=
EXTT0=
EXTT1=
EXTT2=
EXTT3=
EXTT4=
EXTT5=
EXTT6=
EXTT7=
EXTT8=
EXTT9=
EXTT10=
EXTT11=
EXTT12=
EXTT13=
EXTT14=
PLAYORDER=
